Coordinates
version=1
nRows=32
nColumns=28
inDegrees=yes

Units are S.I. units (second, meters, Newtons, ...)
If the header above contains a line with 'inDegrees', this indicates whether rotational values are in degrees (yes) or radians (no).

endheader
time	pelvis_tilt	pelvis_list	pelvis_rot	pelvis_tx	pelvis_ty	pelvis_tz	hip_flexion_r	hip_adduction_r	hip_rotation_r	knee_adduction_r	knee_rotation_r	knee_flexion_r	ankle_adduction_r	ankle_rotation_r	ankle_flexion_r	hip_flexion_l	hip_adduction_l	hip_rotation_l	knee_adduction_l	knee_rotation_l	knee_flexion_l	ankle_adduction_l	ankle_rotation_l	ankle_flexion_l	lumbar_extension	lumbar_bending	lumbar_rotation
0.00000	5137.455819	-5163.118498	5127.231961	0.000000	0.900000	0.000000	37.823225	15.199793	60.371259	0.363833	31.992570	-13.142499	-13.434720	-49.538991	-28.804882	-0.143763	17.251226	-43.036815	-24.425621	2.197920	8.707926	-16.560332	-6.282163	19.959466	0.000000	0.000000	0.000000
0.01000	5137.532667	-5162.970110	5127.864641	0.000000	0.900000	0.000000	37.506976	15.765040	59.079917	0.113656	31.755156	-12.560118	-13.286816	-48.774714	-28.113582	0.819735	16.665036	-41.833887	-24.058621	1.980538	8.974439	-15.321808	-6.729671	19.693207	0.000000	0.000000	0.000000
0.02000	5137.617650	-5162.742096	5127.683265	0.000000	0.900000	0.000000	36.560825	15.960215	58.416808	0.331089	31.769120	-12.896251	-13.669507	-47.956741	-27.513549	2.083568	16.103940	-40.424945	-23.350692	1.141016	9.368526	-14.195103	-7.526562	19.314783	0.000000	0.000000	0.000000
0.03000	5137.529794	-5162.785679	5127.549973	0.000000	0.900000	0.000000	35.540763	16.459853	57.931094	0.692334	31.495747	-13.030707	-13.997662	-47.176255	-26.650604	3.439963	15.093995	-39.018806	-22.206692	0.140539	9.959038	-13.720557	-8.088823	19.086825	0.000000	0.000000	0.000000
0.04000	5137.861084	-5162.831254	5127.679273	0.000000	0.900000	0.000000	34.468961	17.028067	57.258098	0.923477	31.590477	-13.028769	-14.413239	-46.805154	-26.066702	4.487018	14.114247	-38.220278	-20.948417	-0.061932	10.665422	-13.152083	-8.667922	18.934810	0.000000	0.000000	0.000000
0.05000	5138.217426	-5162.981556	5127.596840	0.000000	0.900000	0.000000	33.057627	17.483365	57.029470	1.360592	31.052136	-13.206179	-14.795898	-46.033086	-25.480936	5.397068	13.047557	-38.139411	-19.924138	-0.200998	11.496577	-12.528924	-8.670343	18.959829	0.000000	0.000000	0.000000
0.06000	5138.421585	-5163.187481	5127.820425	0.000000	0.900000	0.000000	32.026058	17.972761	57.185883	1.292305	30.175577	-13.086266	-14.492609	-45.568597	-25.121592	5.941401	12.127693	-37.615332	-19.792518	-0.343797	11.727311	-11.174218	-8.910223	18.791207	0.000000	0.000000	0.000000
0.07000	5138.973138	-5163.386476	5128.529713	0.000000	0.900000	0.000000	30.821484	18.823052	56.283811	0.723175	30.185311	-12.709413	-14.011100	-45.533428	-24.624125	6.218003	10.857242	-36.273442	-19.171746	-0.211739	11.718228	-9.963099	-9.804015	18.400068	0.000000	0.000000	0.000000
0.08000	5139.042528	-5163.214950	5128.855481	0.000000	0.900000	0.000000	29.694091	18.927281	55.842136	0.839724	29.404764	-13.047250	-13.994737	-44.642543	-24.039520	7.046880	9.909712	-34.431996	-18.275711	-1.246702	11.739151	-8.933768	-10.128927	18.060222	0.000000	0.000000	0.000000
0.09000	5139.094535	-5162.981142	5128.904773	0.000000	0.900000	0.000000	28.269171	18.407028	55.827070	1.707780	28.616828	-13.692471	-14.062950	-43.675642	-23.283708	7.943900	9.178207	-32.844805	-17.372579	-2.411713	11.710986	-8.078405	-10.685072	17.582757	0.000000	0.000000	0.000000
0.10000	5139.244561	-5162.566063	5128.475238	0.000000	0.900000	0.000000	26.577384	18.163867	55.779210	1.711061	28.798629	-14.640189	-13.728160	-43.456053	-23.070658	8.458846	8.377151	-32.422895	-16.303525	-2.977497	11.285489	-7.436603	-10.850055	17.086713	0.000000	0.000000	0.000000
0.11000	5139.497414	-5162.512641	5128.123406	0.000000	0.900000	0.000000	24.783969	18.362044	54.747907	1.229369	28.909482	-15.565451	-13.015738	-42.266568	-23.059958	8.883695	7.321003	-31.572388	-15.559044	-3.905863	10.920887	-6.331908	-11.178779	16.411895	0.000000	0.000000	0.000000
0.12000	5139.771986	-5161.828411	5127.672176	0.000000	0.900000	0.000000	23.117919	17.738101	53.948844	1.480204	29.006362	-16.706929	-12.695456	-40.945380	-23.152652	9.089923	6.767596	-30.262643	-14.892076	-4.752367	10.171874	-5.078770	-12.049734	15.726159	0.000000	0.000000	0.000000
0.13000	5138.970770	-5161.149157	5127.283579	0.000000	0.900000	0.000000	22.724824	17.287859	54.012054	2.280884	28.732725	-17.455539	-12.770531	-40.117074	-23.049820	10.111417	6.386918	-28.643769	-14.063617	-5.973097	9.241167	-4.205087	-12.905584	14.993216	0.000000	0.000000	0.000000
0.14000	5138.690888	-5160.521137	5127.442828	0.000000	0.900000	0.000000	21.689764	16.546460	54.028794	2.769528	28.131653	-18.296789	-12.372841	-39.650600	-22.909995	10.810118	5.910111	-27.113052	-12.778753	-6.639114	8.316945	-3.809013	-13.511089	14.035203	0.000000	0.000000	0.000000
0.15000	5139.017688	-5159.963498	5127.421422	0.000000	0.900000	0.000000	19.731126	15.600391	53.706569	3.094788	28.017370	-19.606577	-11.941941	-38.971623	-22.609727	11.541936	5.606530	-26.727440	-11.551112	-6.551264	8.392535	-3.165208	-13.978947	13.583851	0.000000	0.000000	0.000000
0.16000	5139.769572	-5159.004739	5126.685378	0.000000	0.900000	0.000000	17.045256	14.284119	54.048175	3.409206	28.413922	-20.662114	-11.417020	-38.947560	-21.446895	11.789465	5.428001	-26.886945	-10.225636	-6.515548	8.342373	-3.055249	-14.709493	13.269367	0.000000	0.000000	0.000000
0.17000	5140.655002	-5158.408568	5126.594419	0.000000	0.900000	0.000000	15.180441	13.638986	52.711108	3.230154	28.454207	-21.009992	-10.774395	-37.354272	-20.886811	11.488771	4.759096	-26.235424	-8.780314	-6.916658	7.912039	-2.966484	-14.987675	13.011860	0.000000	0.000000	0.000000
0.18000	5141.353984	-5157.746909	5126.838068	0.000000	0.900000	0.000000	13.860220	13.079668	52.508554	2.517786	27.868028	-20.806797	-9.490056	-36.852408	-20.582958	11.409971	4.926510	-26.123714	-8.494167	-6.314002	7.693933	-2.238942	-15.108453	12.437962	0.000000	0.000000	0.000000
0.19000	5142.410829	-5157.206460	5127.138897	0.000000	0.900000	0.000000	12.552415	11.947193	51.982321	2.864931	27.400957	-20.437976	-8.875593	-36.136510	-20.155945	10.677255	4.646054	-25.335998	-7.877785	-5.940300	7.171610	-1.628783	-15.937545	12.034246	0.000000	0.000000	0.000000
0.20000	5143.155928	-5156.577368	5127.490503	0.000000	0.900000	0.000000	11.174787	10.742574	51.611391	3.559127	26.646377	-20.255352	-8.568751	-35.344138	-19.492757	10.278106	4.441873	-22.902944	-6.948161	-7.093609	6.407264	-1.196726	-17.038687	11.314705	0.000000	0.000000	0.000000
0.21000	5143.917427	-5156.278850	5127.305849	0.000000	0.900000	0.000000	9.605761	10.089018	51.576982	4.092337	25.933781	-19.994141	-8.409272	-34.636457	-18.279566	9.751614	3.927543	-21.371720	-5.519423	-8.071867	5.712482	-1.637509	-17.746826	10.514592	0.000000	0.000000	0.000000
0.22000	5144.340374	-5155.969204	5126.863181	0.000000	0.900000	0.000000	8.595529	9.360503	51.003299	4.166303	25.483925	-20.344787	-8.013449	-33.441914	-17.893885	9.720966	3.522409	-21.153180	-4.578908	-8.451583	5.350418	-1.637498	-17.808407	10.133478	0.000000	0.000000	0.000000
0.23000	5144.798180	-5155.351701	5126.582769	0.000000	0.900000	0.000000	7.400654	8.778868	49.861099	3.819618	25.584539	-20.820040	-7.758469	-31.901569	-17.672413	9.578327	3.825271	-20.918926	-4.307135	-8.628832	5.101890	-1.133913	-18.343231	9.846547	0.000000	0.000000	0.000000
0.24000	5145.486556	-5154.877612	5126.621318	0.000000	0.900000	0.000000	5.578197	8.256094	49.283796	3.908657	25.713810	-21.249544	-7.473650	-31.879428	-16.698987	8.724774	3.811339	-20.433803	-3.747069	-8.646783	3.751871	-1.288314	-18.607672	8.768624	0.000000	0.000000	0.000000
0.25000	5145.903316	-5154.593057	5126.615691	0.000000	0.900000	0.000000	4.716030	7.366426	49.513156	4.622604	24.749040	-21.419970	-7.703380	-30.765273	-16.658676	9.260019	3.576788	-19.109537	-2.617805	-9.831563	4.296421	-1.273358	-19.088656	8.853352	0.000000	0.000000	0.000000
0.26000	5146.530239	-5153.873707	5126.488474	0.000000	0.900000	0.000000	2.931732	6.031863	50.345447	5.407251	23.722441	-21.454564	-7.645420	-30.073281	-15.335837	9.436020	3.850849	-18.355934	-1.511168	-10.411435	3.811748	-1.168349	-19.489521	7.737707	0.000000	0.000000	0.000000
0.27000	5147.452037	-5153.631985	5126.515625	0.000000	0.900000	0.000000	1.080785	5.285099	50.441388	5.454005	23.021809	-21.735296	-7.104935	-29.591493	-14.627915	8.779189	3.809446	-18.150361	-0.934144	-10.172500	3.367634	-0.995014	-19.901453	6.717882	0.000000	0.000000	0.000000
0.28000	5148.503022	-5153.557092	5126.379674	0.000000	0.900000	0.000000	-0.406472	5.092157	49.396537	5.367577	22.975839	-21.462914	-7.000172	-28.525455	-13.922012	7.701261	3.451200	-18.165445	-0.353968	-10.093203	2.694471	-0.987033	-20.195170	6.221590	0.000000	0.000000	0.000000
0.29000	5149.023513	-5153.872423	5126.383698	0.000000	0.900000	0.000000	-1.483106	4.612685	48.395222	4.987274	23.276416	-21.686234	-6.358990	-27.720408	-13.756973	7.519183	2.804825	-17.407004	0.443941	-10.321110	2.565145	-1.137786	-20.627595	5.944430	0.000000	0.000000	0.000000
0.30000	5149.815360	-5153.785296	5126.412583	0.000000	0.900000	0.000000	-2.837704	3.955539	48.378689	4.946095	23.238556	-21.468669	-5.680894	-28.264981	-12.814207	7.031598	2.212755	-16.871825	1.672656	-10.303688	2.100493	-1.662726	-20.564691	5.860427	0.000000	0.000000	0.000000
0.31000	5149.956705	-5153.791074	5126.943137	0.000000	0.900000	0.000000	-3.141887	2.781398	48.042364	5.545847	22.151705	-21.241358	-5.034017	-27.041306	-12.781497	7.204221	2.267593	-15.668091	1.597953	-10.876341	2.221669	-1.148014	-20.709244	5.899957	0.000000	0.000000	0.000000
